<svg xmlns="http://www.w3.org/2000/svg" xmlns:xlink="http://www.w3.org/1999/xlink" xml:space="preserve" version="1.1" style="shape-rendering:geometricPrecision;text-rendering:geometricPrecision;image-rendering:optimizeQuality;" viewBox="0 0 333.33 416.66249999999997" x="0px" y="0px" fill-rule="evenodd" clip-rule="evenodd"><defs><style type="text/css">
   
    .fil0 {fill:black}
   
  </style></defs><g><path class="fil0" d="M117.63 237.45l9.65 0 0 21.23 -9.65 0 0 -21.23zm83.32 -138.11c6.51,16.06 5.31,35.24 -4.2,51.59l-26.63 -20.38 -6.18 8.07 27 20.67c-3.24,3.93 -8.39,9.44 -14.93,15.98l-36.86 -28.21 -6.18 8.07 35.72 27.33c-7.42,7.19 -16.03,15.21 -25.29,23.57l-21.8 -16.69 -6.18 8.07 20.27 15.51c-9.09,8.06 -18.63,16.26 -28.18,24.18l-20.85 -15.95 -6.17 8.07 18.95 14.51c-35.41,28.73 -69.04,51.61 -77.26,45.31 -10.41,-7.96 13.66,-67.36 39.06,-119.7l29.03 22.22 6.18 -8.07 -30.64 -23.45c5.24,-10.57 10.46,-20.7 15.36,-29.87l18.03 13.8 6.18 -8.07 -19.3 -14.78c6.37,-11.57 11.96,-21.02 16.02,-27.02l31.14 23.83 6.17 -8.07 -31.04 -23.76c13.42,-14.59 32.37,-21.33 50.26,-19.17l20.73 -56.33 18.4 6.77 -18.55 50.42 40.48 -52.89 15.57 11.91 -40.48 52.89 43.83 -31.08 11.33 15.99 -48.96 34.72zm46.93 118.04l-10.91 -6.6 -45.11 0 -10.91 6.6 23.24 0 10.22 10.38 10.22 -10.38 23.24 0zm-19.83 -18.23l1.31 -4.93 20.57 2.17c45.36,33.5 29.02,82.19 -19.94,113.44 -10.39,0 -20.78,0 -31.17,0 -48.96,-31.25 -65.3,-79.94 -19.94,-113.44l20.57 -2.17 1.31 4.93 4.25 0 0 -9.94 18.76 0 0 9.94 4.26 0zm40.37 -73.44l3.87 3.88 10.7 0 -3.8 -6.59 0 -9.32 5.65 -4.48 -13.13 -0.08c-1.2,-7.3 2.76,-11.17 11.65,-11.31l-0.12 -7.69c-13.27,0.2 -20.53,7.68 -19.28,19.01l-11.96 0.07 5.64 4.48 0 9.32 -3.8 6.59 10.7 0 3.88 -3.88zm14.63 -7.41c17.8,4.78 30.59,18.04 30.59,33.64 0,19.63 -20.25,35.54 -45.22,35.54 -24.98,0 -45.23,-15.91 -45.23,-35.54 0,-15.6 12.8,-28.86 30.59,-33.64l0 3.7 -6.61 11.45 18.96 0 2.28 -2.28 2.28 2.28 18.96 0 -6.61 -11.45 0 -3.7zm-152.59 135.87c12.29,3.49 21.3,14.79 21.3,28.2 0,15.33 -11.77,27.91 -26.76,29.19l-2.54 11.17 -2.54 -11.17c-14.99,-1.28 -26.76,-13.87 -26.76,-29.19 0,-13.41 9,-24.71 21.29,-28.2l0 7.7 16.02 0 0 -7.7z"/></g><text x="0" y="348.33" fill="#000000" font-size="5px" font-weight="bold" font-family="'Helvetica Neue', Helvetica, Arial-Unicode, Arial, Sans-serif">Created by jauhari</text><text x="0" y="353.33" fill="#000000" font-size="5px" font-weight="bold" font-family="'Helvetica Neue', Helvetica, Arial-Unicode, Arial, Sans-serif">from the Noun Project</text></svg>